<?xml version="1.0" encoding="UTF-8" standalone="no"?>
<!-- Created with Inkscape (http://www.inkscape.org/) -->

<svg
   version="1.1"
   id="svg1"
   width="546.1333"
   height="546.1333"
   viewBox="0 0 546.1333 546.1333"
   sodipodi:docname="close.svg"
   inkscape:version="1.3.1 (9b9bdc1480, 2023-11-25, custom)"
   xmlns:inkscape="http://www.inkscape.org/namespaces/inkscape"
   xmlns:sodipodi="http://sodipodi.sourceforge.net/DTD/sodipodi-0.dtd"
   xmlns="http://www.w3.org/2000/svg"
   xmlns:svg="http://www.w3.org/2000/svg">
  <defs
     id="defs1" />
  <sodipodi:namedview
     id="namedview1"
     pagecolor="#505050"
     bordercolor="#eeeeee"
     borderopacity="1"
     inkscape:showpageshadow="0"
     inkscape:pageopacity="0"
     inkscape:pagecheckerboard="0"
     inkscape:deskcolor="#505050"
     inkscape:zoom="0.44723169"
     inkscape:cx="241.48557"
     inkscape:cy="188.9401"
     inkscape:window-width="1366"
     inkscape:window-height="699"
     inkscape:window-x="0"
     inkscape:window-y="0"
     inkscape:window-maximized="1"
     inkscape:current-layer="g1" />
  <g
     inkscape:groupmode="layer"
     inkscape:label="Image"
     id="g1">
    <path
       style="fill:#d4af37;stroke-width:0.532199;fill-opacity:1"
       d="m 149.95695,369.23537 c -7.48187,-2.446 -12.79355,-10.48224 -11.9023,-18.00745 0.75961,-6.4137 -1.34724,-4.11954 61.84964,-67.34853 l 59.14921,-59.17927 -59.38627,-59.46567 c -65.99894,-66.087178 -61.521,-61.05528 -61.50743,-69.116217 0.008,-4.741622 1.43416,-8.119437 4.88537,-11.570642 3.45121,-3.451206 6.82903,-4.877393 11.57064,-4.885371 8.06093,-0.01357 3.02919,-4.491368 69.11494,61.50613 l 59.46439,59.385 59.46439,-59.385 c 66.08575,-65.997498 61.05401,-61.519695 69.11494,-61.50613 4.74162,0.008 8.11943,1.434165 11.57064,4.885371 3.4512,3.451205 4.87739,6.82902 4.88537,11.570642 0.0135,8.060927 4.49137,3.029182 -61.50614,69.114927 l -59.385,59.46439 59.385,59.4644 c 65.99751,66.08574 61.51971,61.054 61.50614,69.11494 -0.008,4.74161 -1.43417,8.11942 -4.88537,11.57063 -3.45121,3.4512 -6.82902,4.8774 -11.57064,4.88537 -8.06094,0.0136 -3.02905,4.49151 -69.11622,-61.50742 l -59.46567,-59.38628 -59.17927,59.14921 c -49.39407,49.36898 -59.64285,59.3531 -61.98293,60.38225 -3.46458,1.52371 -8.87284,1.91105 -12.07343,0.86472 z"
       id="path1" />
  </g>
</svg>
