<?xml version="1.0" encoding="UTF-8" standalone="no"?>
<!-- Created with Inkscape (http://www.inkscape.org/) -->

<svg
   version="1.1"
   id="svg1"
   width="448"
   height="448"
   viewBox="0 0 448 448"
   sodipodi:docname="ig.svg"
   inkscape:version="1.3.1 (9b9bdc1480, 2023-11-25, custom)"
   xmlns:inkscape="http://www.inkscape.org/namespaces/inkscape"
   xmlns:sodipodi="http://sodipodi.sourceforge.net/DTD/sodipodi-0.dtd"
   xmlns="http://www.w3.org/2000/svg"
   xmlns:svg="http://www.w3.org/2000/svg">
  <defs
     id="defs1" />
  <sodipodi:namedview
     id="namedview1"
     pagecolor="#505050"
     bordercolor="#eeeeee"
     borderopacity="1"
     inkscape:showpageshadow="0"
     inkscape:pageopacity="0"
     inkscape:pagecheckerboard="0"
     inkscape:deskcolor="#505050"
     inkscape:zoom="1.1138393"
     inkscape:cx="224.44889"
     inkscape:cy="224"
     inkscape:window-width="1366"
     inkscape:window-height="699"
     inkscape:window-x="0"
     inkscape:window-y="0"
     inkscape:window-maximized="1"
     inkscape:current-layer="g1" />
  <g
     inkscape:groupmode="layer"
     inkscape:label="Image"
     id="g1">
    <path
       style="fill:#fef9f2;fill-opacity:1;stroke-width:0.4;stroke-dasharray:none"
       d="M 117.62575,447.40756 C 60.171937,440.76776 14.248708,397.6512 3.3426125,340.10901 c -1.55503,-8.20457 -1.716861,-19.09706 -1.716861,-115.55841 0,-98.0559 0.141632,-107.25013 1.786318,-115.9609 C 13.597509,54.64444 55.21959,13.022359 109.16485,2.8369199 c 8.71077,-1.644686 17.905,-1.786319 115.9609,-1.786319 96.46135,0 107.35384,0.161831 115.55841,1.716861 54.58258,10.3451551 95.87957,51.6421471 106.22473,106.2247281 1.55503,8.20457 1.71686,19.09706 1.71686,115.55841 0,117.53984 0.1926,113.51987 -6.40616,133.71285 -12.63277,38.65776 -44.64989,70.72425 -83.19043,83.31872 -20.0334,6.5466 -15.00902,6.29297 -129.40341,6.53232 -58.84135,0.12312 -107.47374,-0.18384 -112,-0.70693 z m 224,-38.69768 c 9.37031,-2.70363 22.33895,-8.59089 29.1733,-13.24356 6.95377,-4.73397 18.8336,-16.42304 23.95689,-23.5722 5.76103,-8.0391 11.6518,-20.72951 14.54936,-31.34352 l 2.32045,-8.5 v -107.5 -107.5 l -2.32045,-8.5 C 406.40774,97.936591 400.51697,85.246181 394.75594,77.207081 389.63265,70.057921 377.75282,58.36885 370.79905,53.634885 363.63803,48.75983 350.74699,42.99759 341.12575,40.37105 l -8.5,-2.320449 h -107.5 -107.5 l -8.5,2.320449 C 98.511736,43.268612 85.821333,49.159376 77.782231,54.920415 70.633071,60.043697 58.944,71.923531 54.210035,78.877301 49.33498,86.038321 43.57274,98.929361 40.9462,108.5506 l -2.320449,8.5 v 107.5 107.5 l 2.320449,8.5 c 4.827988,17.68533 13.348018,32.11118 26.320408,44.56491 11.038614,10.59726 21.069993,16.76392 34.960132,21.49127 14.16718,4.82165 13.74218,4.80611 125.89901,4.60269 l 105.5,-0.19134 z M 212.24631,335.49773 c -19.77771,-2.46254 -39.93007,-10.67741 -55.05126,-22.44098 -27.96601,-21.75624 -43.34244,-53.15524 -43.34244,-88.50615 0,-31.91513 11.63491,-58.95292 34.86199,-81.01402 21.34255,-20.27118 46.56437,-30.25912 76.41115,-30.25912 31.91513,0 58.95292,11.63491 81.01402,34.86199 20.27118,21.34255 30.25912,46.56437 30.25912,76.41115 0,19.06179 -3.19234,32.99063 -11.28124,49.22242 -6.17248,12.38613 -10.73261,18.62877 -21.43627,29.3454 -16.85727,16.8777 -33.9478,26.18389 -56.55563,30.79588 -9.86154,2.01175 -25.67412,2.7296 -34.87944,1.58343 z m 36.00483,-39.93023 c 24.56196,-8.21458 41.97633,-26.67511 49.54078,-52.5169 2.21482,-7.56633 2.46301,-27.53749 0.44027,-35.42835 -7.03722,-27.45282 -27.24839,-48.07273 -54.60644,-55.7108 -2.75,-0.76777 -9.28421,-1.67473 -14.52047,-2.01547 -43.8181,-2.8514 -81.48555,34.81605 -78.63415,78.63415 0.64898,9.97305 1.98886,15.97512 5.54433,24.83619 7.29563,18.18241 24.88239,34.81623 43.99739,41.61339 10.42301,3.70635 16.08736,4.52854 28.23829,4.09883 8.57681,-0.30332 12.43284,-0.98025 20,-3.51104 z m 88.33741,-166.60825 c -9.86809,-3.50377 -16.44802,-12.46981 -17.23628,-23.48676 -1.12433,-15.714089 9.3257,-28.254849 24.70654,-29.649539 17.03291,-1.54449 31.53092,13.25408 29.76333,30.380359 -1.04479,10.12311 -8.34899,19.45846 -18.01233,23.02121 -4.36155,1.60805 -14.33279,1.47044 -19.22126,-0.26527 z"
       id="path1" />
  </g>
</svg>
