<?xml version="1.0" encoding="UTF-8" standalone="no"?>
<!-- Created with Inkscape (http://www.inkscape.org/) -->

<svg
   version="1.1"
   id="svg1"
   width="1002"
   height="771"
   viewBox="0 0 1002 771"
   sodipodi:docname="logo.svg"
   inkscape:version="1.3.1 (9b9bdc1480, 2023-11-25, custom)"
   xmlns:inkscape="http://www.inkscape.org/namespaces/inkscape"
   xmlns:sodipodi="http://sodipodi.sourceforge.net/DTD/sodipodi-0.dtd"
   xmlns="http://www.w3.org/2000/svg"
   xmlns:svg="http://www.w3.org/2000/svg">
  <defs
     id="defs1" />
  <sodipodi:namedview
     id="namedview1"
     pagecolor="#505050"
     bordercolor="#eeeeee"
     borderopacity="1"
     inkscape:showpageshadow="0"
     inkscape:pageopacity="0"
     inkscape:pagecheckerboard="0"
     inkscape:deskcolor="#505050"
     inkscape:zoom="0.21279164"
     inkscape:cx="592.12853"
     inkscape:cy="538.08505"
     inkscape:window-width="1366"
     inkscape:window-height="699"
     inkscape:window-x="0"
     inkscape:window-y="0"
     inkscape:window-maximized="1"
     inkscape:current-layer="g1" />
  <g
     inkscape:groupmode="layer"
     inkscape:label="Image"
     id="g1">
    <path
       style="fill:#d4af37;fill-opacity:1"
       d="m 664.36989,768.58464 c -19.65525,-5.47119 -35.25652,-25.91419 -45.37462,-59.45629 -3.83322,-12.70733 -7.62262,-29.05484 -7.62409,-32.89035 l -10e-4,-3.39036 14.24964,0.72333 c 7.8373,0.39783 14.34258,0.81627 14.45617,0.92985 0.11359,0.11359 1.16226,6.48875 2.33039,14.16703 5.56291,36.56571 10.95745,53.19399 20.60235,63.50517 5.60277,5.98981 9.69592,7.95533 16.5668,7.95533 4.30644,0 6.40692,-0.62766 10.34887,-3.09242 2.72018,-1.70084 5.73831,-4.06334 6.70695,-5.25 1.8641,-2.28404 9.73854,-16.00697 9.73854,-16.97205 0,-0.31253 -2.6726,-1.99273 -5.93912,-3.73376 -12.92877,-6.89097 -25.42043,-24.34627 -26.76818,-37.4047 -0.57379,-5.55948 0.76583,-9.54707 3.2073,-9.54707 1.82884,0 2.83481,1.93707 6.60132,12.71125 3.56148,10.18772 6.70195,15.95835 11.68871,21.4781 6.24072,6.90773 12.85922,8.8415 15.6093,4.56065 2.35351,-3.66354 8.68672,-31.7748 9.85647,-43.75 0.2158,-2.2093 0.70932,-2.5 4.2442,-2.5 h 4 l -0.21224,6.65761 c -0.11673,3.66169 -1.19248,11.31169 -2.39056,17 -3.31186,15.72426 -3.3616,16.16176 -1.7794,15.65096 3.19561,-1.03168 16.50646,-22.94339 21.29726,-35.05857 l 1.48289,-3.75 12.80102,0.0741 c 17.2337,0.0998 21.71426,0.81791 22.10311,3.54256 0.40818,2.86015 -8.22524,19.48601 -14.0482,27.05338 -13.07752,16.99522 -31.23869,27.24088 -48.41349,27.31258 -4.15198,0.0173 -4.1674,0.0316 -8.40283,7.76736 -5.90232,10.78026 -16.40082,21.17437 -24.43756,24.19455 -7.76381,2.91761 -15.56611,3.44184 -22.5,1.51174 z M 551.42131,671.29559 c -3.78374,-2.02924 -7.17574,-6.16724 -5.05541,-6.16724 0.68198,0 2.77753,1.35 4.65677,3 6.34676,5.57253 15.86815,3.33969 18.18976,-4.26564 1.34174,-4.3954 2.08333,-12.66214 1.18565,-13.21694 -0.40133,-0.24803 -2.23428,0.65908 -4.07322,2.0158 -4.22595,3.11781 -10.5794,3.33664 -14.19951,0.48907 -1.38284,-1.08775 -3.46853,-4.00784 -4.63486,-6.48911 -1.88609,-4.01248 -2.1206,-6.29122 -2.1206,-20.60561 0,-12.42947 0.28463,-15.99999 1.25,-15.68034 0.90207,0.29869 1.40091,4.98416 1.79218,16.83333 0.56866,17.22168 1.28437,20.19003 5.86835,24.33847 2.87528,2.60209 7.55006,2.43635 10.54127,-0.37375 4.41259,-4.14541 5.26754,-7.65181 5.97667,-24.51195 0.36935,-8.78168 0.88154,-16.17668 1.1382,-16.43334 0.25667,-0.25666 0.96006,0.0267 1.5631,0.62978 0.75694,0.75694 0.98123,8.78689 0.72435,25.93333 -0.34199,22.82809 -0.53749,25.11971 -2.41717,28.3335 -4.37246,7.47586 -13.05263,10.10332 -20.38553,6.17064 z m 191.94858,-29.75057 c 0,-24.82198 0.2676,-31.49424 1.25,-31.16714 0.6875,0.22891 1.40618,1.27891 1.59706,2.33334 0.60025,3.31564 2.06052,3.9941 3.66531,1.70293 1.90769,-2.7236 7.46117,-4.56927 11.13694,-3.70131 3.83497,0.90556 8.20009,5.0455 10.45483,9.91551 2.58298,5.57897 2.5762,19.40518 -0.0123,25.10502 -3.73885,8.2329 -11.10035,11.90837 -17.63767,8.80621 -1.93783,-0.91956 -3.98034,-2.52588 -4.53892,-3.56959 -2.02324,-3.78046 -2.91525,-0.50115 -2.91525,10.71738 0,9.50309 -0.25407,11.44098 -1.5,11.44098 -1.30167,0 -1.5,-4.17593 -1.5,-31.58333 z m 19.13755,11.0122 c 2.04972,-1.05995 3.86207,-3.37065 5.57038,-7.10208 2.22454,-4.85905 2.47781,-6.52079 2.08477,-13.67888 -0.55123,-10.03927 -3.22395,-15.93218 -8.33047,-18.36731 -3.21829,-1.5347 -3.70617,-1.5347 -6.92446,0 -2.17674,1.03801 -4.31167,3.24171 -5.75,5.93521 -1.96209,3.67431 -2.2692,5.64447 -2.15735,13.83962 0.1482,10.85872 2.32181,16.76948 7.12508,19.37548 3.52452,1.91221 4.68084,1.91193 8.38205,-0.002 z M 493.60193,624.80503 c -0.21601,-29.62501 -0.11327,-31.80046 1.48724,-31.49223 1.22542,0.236 2.78415,3.63219 5.42646,11.82333 2.03895,6.32072 5.94968,18.46722 8.69051,26.99222 2.91563,9.06869 5.54826,15.61588 6.34484,15.77928 1.32476,0.27174 2.10195,-2.15622 14.09368,-44.02928 2.46588,-8.61042 3.44151,-10.75 4.90192,-10.75 1.7252,0 1.82331,1.66806 1.82331,31 0,26.72062 -0.20457,31 -1.4819,31 -1.25991,0 -1.52206,-3.54544 -1.75,-23.66722 -0.37335,-32.9589 -0.54598,-32.88015 -11.32646,5.16722 -2.64926,9.35 -5.21532,17.53575 -5.70235,18.19056 -1.87659,2.52304 -3.73966,-0.23186 -6.77998,-10.0255 -7.02306,-22.62305 -12.52643,-38.0719 -13.69198,-38.43556 -0.94949,-0.29626 -1.2982,5.43369 -1.51795,24.94294 l -0.2853,25.32756 z m 106.76796,0.4828 v -31.00719 l 7.75,-0.32614 c 4.2625,-0.17938 11.35,-0.0995 15.75,0.17758 7.77656,0.48967 7.60201,0.52772 -6.25,1.36244 l -14.25,0.8587 v 12.91232 12.91231 l 2.5651,0.97525 c 1.4108,0.53639 6.9233,1.06576 12.25,1.17639 l 9.6849,0.20113 -12,0.54887 -12,0.54886 -0.5,14.91871 c -0.35788,10.67808 -0.85531,15.03657 -1.75,15.33334 -0.98204,0.32573 -1.25,-6.23236 -1.25,-30.59257 z m 49.31868,29.74973 c -1.74972,-0.51194 -4.7673,-2.78367 -6.70573,-5.04829 -9.20708,-10.7564 -6.41734,-32.38856 4.88235,-37.85865 12.19937,-5.90561 22.91814,4.68735 22.259,21.99773 -0.57681,15.14786 -9.37149,24.14636 -20.43562,20.90921 z m 9.39098,-2.87372 c 5.33943,-3.25561 7.71324,-9.11395 7.71324,-19.03549 0,-6.88027 -0.42909,-9.31734 -2.25179,-12.78923 -2.33918,-4.4557 -7.21417,-8.20329 -10.67111,-8.20329 -3.62877,0 -8.17727,3.6944 -10.52858,8.55155 -5.05186,10.43577 -2.22921,26.8736 5.41509,31.53495 3.94755,2.40714 6.30123,2.3938 10.32315,-0.0585 z m 29.29034,2.87632 c -3.25958,-1.33837 -7.79564,-5.67853 -9.65375,-9.23682 -4.03654,-7.73003 -2.25322,-24.13398 3.2653,-30.03589 6.18838,-6.61831 13.77196,-6.99773 20.38851,-1.02008 7.33997,6.63122 9.24431,21.12542 4.15092,31.59327 -3.47311,7.13788 -12.00043,11.22491 -18.15098,8.69952 z m 9.70966,-2.87632 c 5.18646,-3.16234 7.67826,-9.13753 7.72977,-18.53549 0.0338,-6.16472 -0.45479,-9.08358 -2.12976,-12.72333 -2.23883,-4.86504 -7.05143,-8.76919 -10.80967,-8.76919 -1.1,0 -3.49311,0.91032 -5.31803,2.02293 -10.64035,6.48721 -10.07768,32.77502 0.81803,38.21804 4.44779,2.22192 5.76364,2.19306 9.70966,-0.21296 z m 29.12872,2.83169 c -4.91921,-1.80186 -5.83838,-5.78001 -5.83838,-25.26831 v -17.59887 h -3.55902 c -2.11803,0 -3.30878,-0.40488 -2.94098,-1 0.33992,-0.55 1.94148,-1 3.55902,-1 h 2.94098 v -8.5 c 0,-6.88889 0.28431,-8.5 1.5,-8.5 1.18879,0 1.5,1.43536 1.5,6.91821 0,9.05103 0.46498,10.08179 4.54797,10.08179 1.8337,0 3.61211,0.45 3.95203,1 0.3722,0.60223 -0.95395,1 -3.33399,1 -2.68125,0 -4.14721,0.50863 -4.55902,1.58179 -0.95167,2.48002 -0.66348,29.46876 0.3619,33.89143 1.10469,4.76473 3.2052,6.50292 7.97224,6.59707 2.89957,0.0573 3.18836,0.2295 1.55887,0.92971 -2.57147,1.105 -4.36728,1.07387 -7.66162,-0.13282 z m 54.67386,0.0253 c -1.00304,-2.61388 -0.0753,-43.89192 0.98776,-43.94665 0.55,-0.0283 1.13885,0.75979 1.30855,1.75134 0.74405,4.3474 1.20079,4.43532 4.55664,0.87708 1.85403,-1.96584 4.08416,-3.57426 4.95583,-3.57426 2.17335,0 6.67898,2.13208 6.67898,3.16052 0,1.15089 -1.43885,1.05228 -4.41198,-0.30237 -2.03613,-0.92772 -2.99825,-0.81937 -5.13058,0.57778 -4.64574,3.04401 -5.76098,7.53053 -6.23028,25.06407 -0.39369,14.70854 -1.28831,20.11018 -2.71492,16.39249 z m 25,0 c -0.99772,-2.60002 -0.0741,-43.87979 0.98776,-44.14383 1.35785,-0.33765 1.89815,43.25319 0.55279,44.59855 -0.64963,0.64963 -1.17644,0.49413 -1.54055,-0.45472 z m 12,0 c -1.00304,-2.61388 -0.0753,-43.89192 0.98776,-43.94665 0.55,-0.0283 1.13885,0.75979 1.30855,1.75134 0.78321,4.5762 1.20157,4.68535 4.75554,1.24071 6.12646,-5.93801 14.25697,-3.99722 18.70462,4.46486 1.87778,3.57266 2.20417,6.12573 2.54921,19.94044 0.26146,10.46856 0.0314,16.20754 -0.67833,16.91722 -1.65389,1.65389 -1.93763,-0.17666 -2.86534,-18.48612 -0.92765,-18.3081 -1.71296,-20.68727 -7.8145,-23.67486 -2.54837,-1.2478 -3.24279,-1.19326 -6.36609,0.5 -6.38812,3.46323 -7.38729,6.6077 -7.87784,24.79229 -0.39981,14.82086 -1.28202,20.20529 -2.70358,16.50077 z m 47.84476,0.11593 c -4.35562,-1.75771 -5.35659,-4.74046 -5.36299,-15.98093 -0.003,-5.79012 -0.295,-14.23999 -0.64822,-18.77749 l -0.64222,-8.24999 h -2.9108 c -1.68589,0 -2.65073,-0.42082 -2.29277,-1 0.33992,-0.55 1.66399,-1 2.94239,-1 2.83166,0 3.52517,-2.11994 3.54396,-10.83333 0.01,-4.61616 0.35257,-6.22114 1.26365,-5.91951 0.83068,0.275 1.34743,3.1543 1.54044,8.58333 l 0.29044,8.16951 h 3.90055 c 5.38973,0 6.04409,1.812 0.79136,2.19139 l -4.27279,0.30861 -0.27193,18.08726 c -0.25658,17.06642 -0.15371,18.23755 1.82258,20.75 1.54917,1.96945 3.05199,2.68869 5.77193,2.76242 3.30816,0.0897 3.42639,0.18007 1.17742,0.90032 -3.25979,1.04397 -4.07435,1.045 -6.643,0.008 z m -59.69033,-53.67508 c -1.25798,-1.25797 -0.66657,-4.33333 0.83333,-4.33333 0.93333,0 1.5,0.94444 1.5,2.5 0,2.42787 -0.97373,3.19294 -2.33333,1.83333 z m -22.63761,-22.44864 c -5.20902,-0.46216 -10.04652,-1.06115 -10.75,-1.3311 -1.86846,-0.717 -1.62483,-7.7899 1.2086,-35.08735 2.33288,-22.47511 6.52222,-70.62636 8.07763,-92.84237 0.87627,-12.51574 -0.0604,-12.42789 -7.54906,0.70807 -3.03393,5.32186 -7.50822,12.39478 -9.94289,15.7176 -9.01229,12.29998 -26.57969,26.39174 -38.36608,30.7755 -4.93441,1.83528 -19.80448,5.38453 -27.95726,6.67295 -2.0625,0.32595 -3.7459,0.90975 -3.74088,1.29732 0.005,0.38758 2.91771,4.75469 6.47266,9.70469 8.54963,11.90473 15.53435,26.14114 20.8868,42.57188 2.40588,7.38547 4.68114,14.72697 5.05614,16.31445 l 0.68182,2.88632 -4.30327,-0.68751 c -2.3668,-0.37813 -4.68075,-1.06446 -5.14211,-1.52517 -0.46136,-0.46071 -2.74618,-6.17517 -5.07736,-12.69881 -9.77062,-27.34227 -22.48956,-50.97718 -30.1254,-55.98037 -1.32464,-0.86794 -6.35718,-2.60413 -11.18342,-3.8582 -11.02684,-2.86527 -13.93005,-4.02212 -18.12665,-7.22302 -4.04893,-3.08827 -6.14833,-7.72403 -6.14833,-13.57632 0,-6.30737 1.79262,-8.22623 7.66939,-8.20949 7.33129,0.0209 13.42195,3.68093 25.52378,15.33792 l 10.74672,10.35167 6.28005,-0.67731 c 28.36717,-3.05941 45.20387,-13.30412 61.09535,-37.175 8.14028,-12.22765 13.32183,-23.28224 19.74347,-42.12178 5.89722,-17.301 7.79358,-26.98299 12.48228,-63.72926 8.42874,-66.05771 15.55219,-95.56282 30.17887,-125 14.29212,-28.76387 29.52726,-43.64286 44.68752,-43.64286 8.97245,0 14.59257,4.39498 14.59257,11.41151 0,3.9878 -3.1543,7.23809 -13.28809,13.69246 -20.782,13.23638 -37.45324,43.33232 -49.04494,88.53889 -5.38076,20.98446 -7.85425,36.5 -5.81884,36.5 0.98204,0 2.33613,-3.02222 8.73685,-19.5 11.72471,-30.18364 24.82297,-48.18424 40.72881,-55.97253 12.61773,-6.17827 28.38247,-6.53895 38.76704,-0.88696 5.05561,2.75161 14.89159,12.12132 19.82722,18.88732 7.65641,10.49578 14.77674,28.39163 18.82808,47.32147 2.5643,11.98168 2.70744,14.07857 2.70651,39.6507 -8.5e-4,23.25027 -0.30396,28.74017 -2.18254,39.53011 -10.54989,60.59493 -33.93337,96.21161 -70.2601,107.01705 -4.125,1.22699 -8.34829,2.6667 -9.3851,3.19935 -8.1158,4.16947 23.97897,3.23045 43.09436,-1.26084 23.4966,-5.52067 43.80235,-21.0788 59.49393,-45.58383 9.90236,-15.46419 20.4978,-43.05558 27.24164,-70.93945 2.73408,-11.30465 5.35533,-15.70306 8.03361,-13.48028 1.55497,1.29053 0.57526,8.12238 -3.56844,24.88215 -12.29752,49.73954 -36.85918,87.02292 -67.86789,103.02011 -17.94233,9.25633 -31.25536,11.67223 -59.54211,10.80505 -20.6075,-0.63177 -26.58693,-1.71223 -37.44325,-6.76587 -9.68405,-4.50793 -14.27149,-8.77624 -18.69669,-17.39603 -2.12303,-4.13542 -4.13332,-7.52087 -4.4673,-7.52323 -0.33398,-0.002 -0.91652,10.90821 -1.29454,24.24571 -0.80312,28.33615 -2.39459,59.09051 -3.23007,62.4193 -0.66317,2.6423 -1.57497,2.70272 -18.33909,1.21539 z m 76.57572,-71.91525 c 22.09649,-10.60574 44.62598,-58.45901 50.97251,-108.26706 2.01887,-15.84421 1.49665,-56.49876 -0.94847,-73.83874 -3.36766,-23.88224 -10.10385,-42.02423 -19.00401,-51.18182 -7.4515,-7.66704 -20.26202,-8.88211 -30.87838,-2.9288 -18.77564,10.52875 -36.5836,50.92033 -46.40161,105.24698 -2.35318,13.02099 -2.66847,17.66202 -3.091,45.5 -0.60314,39.73634 0.91855,52.93134 7.89164,68.43096 4.8259,10.72689 9.32325,15.22721 18.73682,18.7492 5.40265,2.02135 16.72254,1.1691 22.7225,-1.71072 z m -255.99453,63.28981 -4.88975,-0.38025 0.60955,-56.1895 c 0.33525,-30.90422 1.05775,-61.3645 1.60556,-67.6895 2.25704,-26.06011 2.45953,-32.29838 1.03292,-31.82284 -1.46579,0.48859 -1.54851,0.71695 -5.55106,15.32284 -6.91631,25.23869 -24.00059,59.44038 -39.01959,78.11484 -10.73263,13.34484 -21.22237,19.94355 -34.48766,21.69491 -20.13586,2.65846 -37.9278,-5.02476 -45.19288,-19.51596 -5.04167,-10.05629 -5.95269,-15.60929 -6.44656,-39.29379 -0.56778,-27.22923 0.21558,-33.70886 10.19727,-84.34788 9.35413,-47.45528 11.61175,-63.17079 12.23259,-85.15212 0.38684,-13.69616 0.14788,-19.13022 -1.09936,-25 -1.89129,-8.90082 -5.08601,-15.52615 -8.83714,-18.32677 -3.31481,-2.47487 -9.78345,-3.50749 -15.54973,-2.48229 -15.48542,2.7532 -32.26013,29.81127 -48.3992,78.06924 -12.4331,37.17663 -18.95429,69.79424 -23.33961,116.73982 -2.90564,31.10536 -6.30071,62.38865 -7.13657,65.75871 -0.56229,2.26707 -1.51317,2.66318 -8.7292,3.63639 -5.62353,0.75843 -10.81036,4.62616 -16.04902,11.96748 -2.52576,3.53954 -5.3193,6.7145 -6.20787,7.05548 -1.41395,0.54258 -1.53735,-0.10003 -0.98883,-5.14905 0.34471,-3.17296 2.41123,-32.76901 4.59227,-65.76901 2.18104,-33 4.73931,-71.7 5.68505,-86 2.37699,-35.94087 2.40404,-82.70518 0.0553,-95.5 -2.32131,-12.64514 -4.27523,-18.56689 -7.95488,-24.10884 -3.97734,-5.9903 -5.8142,-7.03402 -12.37934,-7.03402 -7.37135,0 -13.01321,2.91819 -19.78681,10.23449 -13.09124,14.14009 -26.47701,44.8629 -36.99416,84.90837 -8.9761,34.17774 -12.23283,57.30653 -19.0795,135.5 -1.3966,15.95 -2.76445,30.0125 -3.03968,31.25 -0.4286,1.92704 -1.14821,2.25 -5.01349,2.25 -4.85065,0 -10.69186,2.02597 -13.80502,4.78814 -1.06116,0.94152 -4.00263,4.86186 -6.5366,8.71186 l -4.60721,7 -0.34282,-4 c -0.41016,-4.78572 -0.19646,-7.42727 9.86942,-122 12.68433,-144.37666 12.77018,-145.5 11.11907,-145.5 -0.46988,0 -1.84017,3.4875 -3.04509,7.75 -8.64274,30.57425 -14.52315,44.47077 -22.10058,52.22781 -2.96114,3.03133 -7.91969,6.30206 -14.5,9.56443 l -10,4.95776 -18.5,-0.0262 c -17.62862,-0.025 -18.87681,-0.15754 -26.5,-2.8143 -9.22889,-3.21636 -30.11343,-13.866 -38.94805,-19.86074 -3.32861,-2.25862 -10.55199,-7.78715 -16.05199,-12.28564 -44.868945,-36.69861 -86.822171,-56.00326 -103.9535107,-47.8339 -3.8559557,1.83878 -5.7995448,1.14527 -3.4302845,-1.22399 2.32014,-2.32014 12.0814982,-3.50786 20.2832622,-2.46798 20.228708,2.56475 57.204138,22.33281 83.100533,44.42777 24.62205,21.00769 49.11466,34.37608 71.67686,39.12218 20.45646,4.30315 41.38566,-0.94051 53.96666,-13.52096 8.99696,-8.99657 14.54358,-21.96217 21.8625,-51.10509 1.71431,-6.82613 3.7819,-14.72447 4.59464,-17.55187 l 1.47772,-5.14071 10.71081,-0.40548 c 12.67422,-0.47981 16.70704,-1.98629 25.85723,-9.65908 3.38053,-2.8347 6.46913,-5.15401 6.86355,-5.15401 1.01679,0 0.0938,5.57799 -6.53612,39.5 -5.70311,29.18 -9.97385,52.65765 -9.97385,54.82953 0,2.97782 2.36492,-2.182 7.02604,-15.32953 9.98192,-28.15583 21.42817,-48.6776 34.36306,-61.60895 8.63029,-8.62793 15.15818,-12.11609 25.41839,-13.58225 25.49495,-3.64317 42.25061,14.27427 49.60523,53.04469 1.14494,6.03563 4.58728,35.14148 4.58728,38.78661 0,0.19794 0.39531,0.3599 0.87846,0.3599 0.48316,0 2.53737,-4.8375 4.5649,-10.75 4.68515,-13.66232 17.97419,-41.14889 24.99819,-51.7053 6.8835,-10.34526 20.86632,-23.88066 28.08332,-27.18472 10.27879,-4.70578 24.36575,-4.02756 35.6222,1.71505 9.58268,4.88872 18.99535,18.65481 22.99101,33.62449 1.73954,6.51718 2.07791,10.67951 2.05676,25.30048 -0.0299,20.6821 -1.29826,31.14533 -11.25307,92.83284 -8.21268,50.89197 -10.94848,73.22175 -10.92441,89.16582 0.0382,25.33003 5.59321,36.00134 18.74055,36.00134 17.71402,0 39.94167,-27.23457 57.56918,-70.53701 10.89977,-26.77558 14.56115,-41.51116 23.14078,-93.13241 C 629.04557,212.80718 650.02772,133.3399 679.91103,74.128354 702.2163,29.932103 724.27792,7.5293514 750.6033,2.3429682 c 6.71858,-1.3236332 9.1523,-1.38409025 15.0443,-0.3737232 17.22577,2.9538916 27.86528,13.529145 33.36058,33.159109 2.74383,9.801342 2.53271,37.464863 -0.40449,53 -9.87967,52.254636 -39.71992,122.107526 -86.07821,201.499996 -19.67752,33.69942 -38.93785,63.90328 -55.18723,86.54409 -5.51085,7.67845 -10.4392,15.06411 -10.95188,16.41258 -2.36144,6.21105 -5.65283,66.81517 -8.59685,158.29333 l -0.6517,20.25 -13.63396,-0.18025 c -7.49868,-0.0991 -15.83436,-0.35136 -18.52372,-0.5605 z m 48.1766,-207.82041 c 6.06269,-7.95711 27.27334,-40.45448 41.73211,-63.93884 26.58284,-43.17659 56.85595,-100.70015 71.0469,-135 18.81513,-45.47661 27.57196,-82.98984 26.14451,-111.999996 -1.34953,-27.426735 -9.46637,-39.05935 -27.18565,-38.961016 -5.31002,0.02947 -8.24519,0.62625 -12.02472,2.444876 -23.41431,11.26646 -46.68888,62.837812 -68.08255,150.855996 -15.50936,63.80885 -25.37004,113.83618 -35.3531,179.36087 -1.65083,10.8354 -3.30416,20.90657 -3.67406,22.38038 -1.1001,4.38315 1.5345,2.5515 7.39656,-5.14227 z"
       id="path1" />
  </g>
</svg>
