<?xml version="1.0" encoding="UTF-8" standalone="no"?>
<!-- Created with Inkscape (http://www.inkscape.org/) -->

<svg
   version="1.1"
   id="svg1"
   width="512"
   height="512"
   viewBox="0 0 512 512"
   sodipodi:docname="lupa.svg"
   inkscape:version="1.3.1 (9b9bdc1480, 2023-11-25, custom)"
   xmlns:inkscape="http://www.inkscape.org/namespaces/inkscape"
   xmlns:sodipodi="http://sodipodi.sourceforge.net/DTD/sodipodi-0.dtd"
   xmlns="http://www.w3.org/2000/svg"
   xmlns:svg="http://www.w3.org/2000/svg">
  <defs
     id="defs1" />
  <sodipodi:namedview
     id="namedview1"
     pagecolor="#505050"
     bordercolor="#eeeeee"
     borderopacity="1"
     inkscape:showpageshadow="0"
     inkscape:pageopacity="0"
     inkscape:pagecheckerboard="0"
     inkscape:deskcolor="#505050"
     inkscape:zoom="0.48730469"
     inkscape:cx="194.9499"
     inkscape:cy="204.18437"
     inkscape:window-width="1366"
     inkscape:window-height="699"
     inkscape:window-x="0"
     inkscape:window-y="0"
     inkscape:window-maximized="1"
     inkscape:current-layer="g1" />
  <g
     inkscape:groupmode="layer"
     inkscape:label="Image"
     id="g1">
    <path
       style="fill:#424242;fill-opacity:1"
       d="m 407.66511,446.71609 c -2.2,-0.72902 -5.575,-2.1275 -7.5,-3.10774 -1.925,-0.98023 -22.51733,-20.73609 -45.76073,-43.90191 -40.81014,-40.67389 -42.33762,-42.07079 -44.50001,-40.69595 -41.2153,26.20449 -93.51596,32.01018 -139.73926,15.51191 C 127.70075,359.36578 92.297203,325.14079 75.677893,283.18058 40.052353,193.23369 91.648453,92.670492 185.53899,69.056186 c 77.29314,-19.439914 157.77395,21.796416 187.11334,95.872154 16.87578,42.60774 14.84198,90.033 -5.58036,130.12612 -2.66147,5.225 -5.84709,11.19511 -7.07917,13.26692 l -2.24013,3.76692 42.15055,42.23308 c 47.92313,48.01694 47.74877,47.79152 47.74877,61.73308 0,12.9061 -6.7048,23.46353 -18.26123,28.75423 -6.50906,2.97995 -15.97974,3.81142 -21.72565,1.9074 z M 241.68776,334.58299 c 61.16348,-9.92043 102.82634,-67.498 92.94219,-128.44501 -9.09618,-56.08827 -58.53931,-96.23106 -115.46484,-93.7457 -16.75632,0.73157 -28.93472,3.90232 -44.5,11.58592 -37.28454,18.40503 -60.25339,53.54811 -62.14005,95.07626 -3.21066,70.67171 59.56127,126.81755 129.1627,115.52853 z"
       id="path1" />
  </g>
</svg>
