<?xml version="1.0" encoding="UTF-8" standalone="no"?>
<!-- Created with Inkscape (http://www.inkscape.org/) -->

<svg
   version="1.1"
   id="svg1"
   width="512"
   height="512"
   viewBox="0 0 512 512"
   sodipodi:docname="tikTok.svg"
   inkscape:version="1.3.1 (9b9bdc1480, 2023-11-25, custom)"
   xmlns:inkscape="http://www.inkscape.org/namespaces/inkscape"
   xmlns:sodipodi="http://sodipodi.sourceforge.net/DTD/sodipodi-0.dtd"
   xmlns="http://www.w3.org/2000/svg"
   xmlns:svg="http://www.w3.org/2000/svg">
  <defs
     id="defs1" />
  <sodipodi:namedview
     id="namedview1"
     pagecolor="#505050"
     bordercolor="#eeeeee"
     borderopacity="1"
     inkscape:showpageshadow="0"
     inkscape:pageopacity="0"
     inkscape:pagecheckerboard="0"
     inkscape:deskcolor="#505050"
     inkscape:zoom="0.97460938"
     inkscape:cx="263.69539"
     inkscape:cy="204.69739"
     inkscape:window-width="1366"
     inkscape:window-height="699"
     inkscape:window-x="0"
     inkscape:window-y="0"
     inkscape:window-maximized="1"
     inkscape:current-layer="g1" />
  <g
     inkscape:groupmode="layer"
     inkscape:label="Image"
     id="g1">
    <path
       style="fill:#fef9f2;fill-opacity:1"
       d="m 182.7014,512.08886 c -5.775,-0.36916 -13.425,-1.20042 -17,-1.84725 -3.575,-0.64682 -9.875,-2.09488 -14,-3.21789 -4.125,-1.12302 -12.0053,-3.79075 -17.51178,-5.9283 -5.50647,-2.13755 -14.05647,-6.20177 -19,-9.03161 -4.94352,-2.82984 -13.05426,-8.19671 -18.023864,-11.92638 -4.969605,-3.72967 -13.519605,-11.44383 -19,-17.14257 -5.480394,-5.69874 -12.743845,-14.43038 -16.141004,-19.40363 -3.39716,-4.97326 -8.27075,-13.21888 -10.8302,-18.3236 -2.55946,-5.10473 -5.7558,-12.20972 -7.10299,-15.78887 -1.34719,-3.57915 -3.53,-10.66643 -4.8507,-15.7495 -1.32069,-5.08307 -2.91048,-12.96109 -3.53286,-17.5067 -0.62238,-4.54561 -1.1316,-14.69854 -1.1316,-22.56206 0,-8.77214 0.64625,-18.10167 1.67228,-24.14173 0.91975,-5.41443 2.77746,-13.6658 4.12824,-18.33637 1.35077,-4.67058 4.18816,-12.6376 6.30529,-17.7045 2.11713,-5.0669 6.11391,-13.06015 8.88173,-17.76279 2.76782,-4.70264 7.606481,-11.97041 10.752579,-16.15059 3.146098,-4.18019 10.032237,-11.84598 15.30253,-17.0351 5.270294,-5.18911 13.632352,-12.34571 18.582349,-15.90355 4.95,-3.55784 14.85,-9.37879 22,-12.93545 7.15,-3.55667 16.37955,-7.57767 20.51012,-8.93558 4.13056,-1.3579 11.55736,-3.37042 16.50399,-4.47226 4.94662,-1.10184 14.16707,-2.52569 20.48988,-3.1641 6.56287,-0.66265 16.00174,-0.88117 21.99601,-0.50922 5.775,0.35835 11.9625,0.90717 13.75,1.21961 l 3.25,0.56806 v 41.88871 c 0,23.03879 -0.3375,41.88863 -0.75,41.88854 -0.4125,-10e-5 -4.27709,-0.6751 -8.58797,-1.5 -4.31088,-0.82491 -11.19235,-1.49983 -15.29216,-1.49983 -4.0998,0 -10.92272,0.71384 -15.16203,1.58632 -4.23931,0.87247 -9.95784,2.54016 -12.70784,3.70596 -2.75,1.1658 -7.7,3.6704 -11,5.56578 -3.3,1.89537 -9.83705,7.31519 -14.52677,12.04404 -6.2839,6.33632 -9.61317,10.70221 -12.65697,16.5979 -2.2716,4.4 -5.1753,11.375 -6.45265,15.5 -1.90433,6.14973 -2.32333,9.75046 -2.3273,20 -0.003,8.73104 0.51961,14.45986 1.73453,19 0.95666,3.575 3.51823,10.1 5.69238,14.5 2.17415,4.4 5.99348,10.57482 8.48741,13.72183 2.49392,3.14701 7.57527,8.2422 11.29188,11.32265 3.71662,3.08045 10.35749,7.33851 14.75749,9.46235 4.4,2.12384 10.89947,4.60101 14.44326,5.50481 3.5438,0.9038 10.2938,1.88813 15,2.1874 5.691,0.36189 11.28298,0.0264 16.69696,-1.00176 4.47712,-0.85023 11.22712,-2.77282 15,-4.27241 3.77288,-1.49959 9.33478,-4.29756 12.35978,-6.2177 3.025,-1.92014 7.46166,-5.21477 9.85924,-7.3214 2.39758,-2.10662 6.63537,-6.65522 9.41731,-10.108 2.78194,-3.45277 6.7315,-9.87777 8.77681,-14.27777 2.0453,-4.4 4.5456,-10.925 5.55623,-14.5 1.74752,-6.18172 1.85254,-15.42421 2.1447,-188.75 l 0.3072,-182.250001 h 41.26751 41.2675 l 1.19041,11.75 c 0.65473,6.462495 2.28476,15.799995 3.62229,20.749995 1.33753,4.95 3.98278,12.66944 5.87834,17.1543 1.89556,4.48487 5.58635,11.68487 8.20177,16 2.61541,4.31514 6.90421,10.5457 9.53066,13.8457 2.62645,3.3 7.85891,8.96251 11.6277,12.58334 3.76878,3.620833 9.74633,8.706886 13.28344,11.302336 3.53711,2.59546 9.2961,6.32121 12.79776,8.27945 3.50167,1.95824 9.89378,5.04799 14.20471,6.86611 4.31092,1.81811 12.59953,4.49789 18.41913,5.95505 5.8196,1.45716 15.20849,2.95635 20.86419,3.33155 l 10.2831,0.68217 0.26122,41.40025 0.26121,41.40025 -13.26121,-0.59576 c -7.29367,-0.32767 -18.21122,-1.50801 -24.26122,-2.62297 -6.05,-1.11497 -15.78612,-3.37374 -21.63582,-5.01948 -5.8497,-1.64574 -14.05363,-4.34995 -18.23094,-6.00936 -4.17732,-1.65941 -12.54045,-5.49728 -18.58475,-8.52861 -6.04429,-3.03132 -13.59036,-7.16713 -16.76905,-9.19067 -3.17869,-2.02355 -8.12273,-5.40143 -10.98674,-7.50641 -2.86402,-2.10498 -5.46829,-3.82724 -5.78727,-3.82724 -0.31898,0 -0.53697,45.1125 -0.48443,100.25 0.0915,96.02254 0.0111,100.73586 -1.9067,111.7716 -1.10122,6.33688 -3.55615,16.26531 -5.45539,22.06317 -1.89924,5.79786 -5.80623,15.23814 -8.6822,20.9784 -2.87597,5.74026 -7.98476,14.47478 -11.35287,19.41006 -3.36811,4.93528 -10.39884,13.43459 -15.62384,18.88736 -5.225,5.45276 -13.16832,12.78016 -17.65182,16.2831 -4.4835,3.50295 -12.29136,8.81512 -17.35081,11.80483 -5.05944,2.98972 -13.09112,7.06561 -17.84818,9.05754 -4.75705,1.99193 -12.96274,4.90359 -18.23487,6.47036 -5.27212,1.56678 -14.27212,3.53684 -20,4.37792 -5.72787,0.84108 -14.01432,1.68721 -18.41432,1.8803 -4.4,0.19308 -12.725,0.049 -18.5,-0.32013 z"
       id="path1" />
  </g>
</svg>
