<?xml version="1.0" encoding="UTF-8" standalone="no"?>
<!-- Created with Inkscape (http://www.inkscape.org/) -->

<svg
   version="1.1"
   id="svg1"
   width="448"
   height="448"
   viewBox="0 0 448 448"
   sodipodi:docname="wapp.svg"
   inkscape:version="1.3.1 (9b9bdc1480, 2023-11-25, custom)"
   xmlns:inkscape="http://www.inkscape.org/namespaces/inkscape"
   xmlns:sodipodi="http://sodipodi.sourceforge.net/DTD/sodipodi-0.dtd"
   xmlns="http://www.w3.org/2000/svg"
   xmlns:svg="http://www.w3.org/2000/svg">
  <defs
     id="defs1" />
  <sodipodi:namedview
     id="namedview1"
     pagecolor="#505050"
     bordercolor="#eeeeee"
     borderopacity="1"
     inkscape:showpageshadow="0"
     inkscape:pageopacity="0"
     inkscape:pagecheckerboard="0"
     inkscape:deskcolor="#505050"
     inkscape:zoom="1.1138393"
     inkscape:cx="224.89779"
     inkscape:cy="224"
     inkscape:window-width="1366"
     inkscape:window-height="699"
     inkscape:window-x="0"
     inkscape:window-y="0"
     inkscape:window-maximized="1"
     inkscape:current-layer="g1" />
  <g
     inkscape:groupmode="layer"
     inkscape:label="Image"
     id="g1">
    <path
       style="fill:#fef9f2;fill-opacity:1"
       d="m 2.020539,444.28156 c 0.3757857,-1.5125 7.3679405,-27.06083 15.538121,-56.77406 l 14.854875,-54.02405 -6.179713,-12.5145 C 15.297325,298.82153 8.5874965,277.44976 4.9043634,253.03156 2.5364271,237.33277 2.5354144,206.66512 4.902323,191.24158 20.127477,92.029529 95.817883,16.898324 195.05411,2.4946312 c 14.48714,-2.10274302 43.67594,-2.38318602 57.5,-0.552454 25.9022,3.43025 48.61767,10.2760538 71.5,21.5480968 66.5806,32.798198 110.79727,93.672976 122.05753,168.041286 2.28643,15.10067 2.2826,45.13222 -0.008,60.5 -9.69181,65.03117 -44.83325,120.09641 -99.54982,155.99059 -5.225,3.42761 -15.8,9.31467 -23.5,13.08236 -61.66954,30.17551 -133.68491,30.12233 -195.91234,-0.14465 l -8.41997,-4.09541 -57.833846,15.08599 c -31.808325,8.29729 -58.2198394,15.08489 -58.6919638,15.08355 -0.4721244,-0.001 -0.550947,-1.23993 -0.1751612,-2.75243 z M 255.05718,404.62755 c 26.74156,-4.52836 51.7728,-14.37744 73.49693,-28.91895 30.37908,-20.33487 55.83855,-51.44106 68.89637,-84.17704 9.52883,-23.88879 13.28485,-43.19697 13.32533,-68.5 0.0328,-20.50633 -1.70177,-33.5594 -6.82475,-51.35803 C 395.46898,142.2045 381.10008,117.17281 360.05411,95.201789 337.77164,71.939912 314.23915,56.875768 284.81463,47.037796 245.70891,33.962956 205.54726,33.990178 166.10627,47.118256 111.62387,65.252925 67.449611,109.46547 49.237482,164.08835 32.096419,215.49883 38.406434,270.41797 66.961323,318.3476 l 5.471501,9.18396 -9.295629,33.75 c -7.631098,27.70652 -9.008001,33.74337 -7.689358,33.71295 0.883449,-0.0204 16.681271,-4.00448 35.106271,-8.85357 l 33.500002,-8.81651 5,2.94095 c 22.4821,13.22376 49.61236,22.43341 75.82524,25.73968 9.99023,1.26008 39.3639,0.4537 50.17783,-1.37751 z m 9.83891,-78.64132 c -25.05725,-6.73513 -51.33697,-19.20891 -70.34198,-33.38812 -29.40552,-21.93879 -64.25933,-63.69078 -75.42228,-90.34965 -11.50238,-27.46946 -7.48112,-54.0009 11.17929,-73.75866 6.94642,-7.35491 9.85873,-8.45824 22.32604,-8.45824 9.82941,0 10.22744,0.0875 12.70556,2.79214 3.21326,3.50702 21.31203,46.27181 21.93174,51.82157 0.6094,5.45737 -1.88701,10.21702 -10.74249,20.4816 -5.11883,5.93335 -6.97786,8.84877 -6.97786,10.94298 0,1.87424 2.38094,6.39378 6.93189,13.15825 11.97461,17.79888 25.81689,31.81459 42.00898,42.53529 11.15257,7.38406 29.91469,16.26817 34.35632,16.26817 3.95845,0 6.28315,-2.22698 18.97634,-18.17866 4.23586,-5.32326 8.55288,-9.94886 9.59337,-10.2791 2.95801,-0.93883 9.91766,1.83944 33.82581,13.50318 21.80578,10.63808 22.20416,10.88795 22.85026,14.33194 0.80477,4.28977 -1.10644,16.29844 -3.7082,23.29965 -3.64355,9.80466 -19.94527,22.03299 -34.38707,25.7946 -8.40988,2.19049 -25.99651,1.93153 -35.10572,-0.51694 z"
       id="path1" />
  </g>
</svg>
